<svg width="225" height="225" viewBox="0 0 225 225" fill="none" xmlns="http://www.w3.org/2000/svg">
<rect x="50" width="25" height="25" fill="black"/>
<rect x="75" width="25" height="25" fill="black"/>
<rect x="125" width="25" height="25" fill="black"/>
<rect x="150" width="25" height="25" fill="black"/>
<rect x="25" y="25" width="25" height="25" fill="black"/>
<rect y="50" width="25" height="25" fill="black"/>
<rect y="75" width="25" height="25" fill="black"/>
<rect y="100" width="25" height="25" fill="black"/>
<rect x="25" y="125" width="25" height="25" fill="black"/>
<rect x="50" y="150" width="25" height="25" fill="black"/>
<rect x="75" y="175" width="25" height="25" fill="black"/>
<rect x="100" y="200" width="25" height="25" fill="black"/>
<rect x="125" y="175" width="25" height="25" fill="black"/>
<rect x="150" y="150" width="25" height="25" fill="black"/>
<rect x="175" y="125" width="25" height="25" fill="black"/>
<rect x="100" y="175" width="25" height="25" fill="#BB1313"/>
<rect x="125" y="150" width="25" height="25" fill="#BB1313"/>
<rect x="150" y="125" width="25" height="25" fill="#BB1313"/>
<rect x="175" y="100" width="25" height="25" fill="#BB1313"/>
<rect x="75" y="150" width="25" height="25" fill="#BB1313"/>
<rect x="50" y="125" width="25" height="25" fill="#BB1313"/>
<rect x="25" y="100" width="25" height="25" fill="#BB1313"/>
<rect x="25" y="75" width="25" height="25" fill="#FF1313"/>
<rect x="25" y="50" width="25" height="25" fill="#FF1313"/>
<rect x="50" y="25" width="25" height="25" fill="#FF1313"/>
<rect x="75" y="25" width="25" height="25" fill="#FF1313"/>
<rect x="125" y="25" width="25" height="25" fill="#FF1313"/>
<rect x="150" y="25" width="25" height="25" fill="#FF1313"/>
<rect x="175" y="50" width="25" height="25" fill="#FF1313"/>
<rect x="150" y="50" width="25" height="25" fill="#FF1313"/>
<rect x="125" y="50" width="25" height="25" fill="#FF1313"/>
<rect x="100" y="50" width="25" height="25" fill="#FF1313"/>
<rect x="75" y="50" width="25" height="25" fill="#FF1313"/>
<rect x="50" y="50" width="25" height="25" fill="#FFC8C8"/>
<rect x="50" y="75" width="25" height="25" fill="#FF1313"/>
<rect x="75" y="75" width="25" height="25" fill="#FF1313"/>
<rect x="100" y="75" width="25" height="25" fill="#FF1313"/>
<rect x="125" y="75" width="25" height="25" fill="#FF1313"/>
<rect x="150" y="75" width="25" height="25" fill="#FF1313"/>
<rect x="175" y="75" width="25" height="25" fill="#FF1313"/>
<rect x="150" y="100" width="25" height="25" fill="#FF1313"/>
<rect x="125" y="100" width="25" height="25" fill="#FF1313"/>
<rect x="100" y="100" width="25" height="25" fill="#FF1313"/>
<rect x="75" y="100" width="25" height="25" fill="#FF1313"/>
<rect x="50" y="100" width="25" height="25" fill="#FF1313"/>
<rect x="75" y="125" width="25" height="25" fill="#FF1313"/>
<rect x="100" y="150" width="25" height="25" fill="#FF1313"/>
<rect x="125" y="125" width="25" height="25" fill="#FF1313"/>
<rect x="100" y="125" width="25" height="25" fill="#FF1313"/>
<rect x="200" y="50" width="25" height="25" fill="black"/>
<rect x="200" y="75" width="25" height="25" fill="black"/>
<rect x="200" y="100" width="25" height="25" fill="black"/>
<rect x="100" y="25" width="25" height="25" fill="black"/>
<rect x="175" y="25" width="25" height="25" fill="black"/>
</svg>
