<svg width="32" height="32" viewBox="0 0 32 32" fill="none" xmlns="http://www.w3.org/2000/svg">
<rect x="10" y="18" width="2" height="2" fill="#072421"/>
<rect x="14" y="20" width="2" height="2" fill="#072421"/>
<rect x="12" y="24" width="2" height="2" fill="#072421"/>
<rect x="4" y="14" width="2" height="2" fill="#072421"/>
<rect x="4" y="12" width="2" height="2" fill="#072421"/>
<rect x="6" y="12" width="2" height="2" fill="#072421"/>
<rect x="8" y="14" width="2" height="2" fill="#072421"/>
<rect x="6" y="16" width="2" height="2" fill="#072421"/>
<rect x="6" y="18" width="2" height="2" fill="#072421"/>
<rect x="8" y="20" width="2" height="2" fill="#072421"/>
<rect x="10" y="16" width="2" height="2" fill="#072421"/>
<rect x="10" y="22" width="2" height="2" fill="#072421"/>
<rect x="12" y="20" width="2" height="2" fill="#072421"/>
<rect x="16" y="22" width="2" height="2" fill="#072421"/>
<rect x="14" y="24" width="2" height="2" fill="#072421"/>
<rect x="12" y="24" width="2" height="2" fill="#072421"/>
<rect x="2" y="26" width="2" height="2" fill="#072421"/>
<rect x="4" y="28" width="2" height="2" fill="#072421"/>
<rect x="4" y="30" width="2" height="2" fill="#072421"/>
<rect x="2" y="30" width="2" height="2" fill="#072421"/>
<rect y="30" width="2" height="2" fill="#072421"/>
<rect y="26" width="2" height="2" fill="#072421"/>
<rect y="28" width="2" height="2" fill="#072421"/>
<rect x="2" y="28" width="2" height="2" fill="#1D8674"/>
<rect x="8" y="18" width="2" height="2" fill="#1D8674"/>
<rect x="8" y="16" width="2" height="2" fill="#1D8674"/>
<rect x="10" y="20" width="2" height="2" fill="#1D8674"/>
<rect x="12" y="22" width="2" height="2" fill="#1D8674"/>
<rect x="14" y="22" width="2" height="2" fill="#156053"/>
<rect x="16" y="24" width="2" height="2" fill="#156053"/>
<rect x="6" y="14" width="2" height="2" fill="#156053"/>
<rect x="14" y="20" width="2" height="2" fill="#072421"/>
<rect x="16" y="26" width="2" height="2" fill="#072421"/>
<rect x="18" y="26" width="2" height="2" fill="#072421"/>
<rect x="18" y="24" width="2" height="2" fill="#072421"/>
<rect x="8" y="22" width="2" height="2" fill="#654C1D"/>
<rect x="8" y="24" width="2" height="2" fill="#251D0A"/>
<rect x="6" y="26" width="2" height="2" fill="#251D0A"/>
<rect x="6" y="22" width="2" height="2" fill="#493315"/>
<rect x="4" y="24" width="2" height="2" fill="#493315"/>
<rect x="6" y="24" width="2" height="2" fill="#836526"/>
<rect x="4" y="26" width="2" height="2" fill="#654C1D"/>
<rect x="16" y="18" width="2" height="2" fill="#0F3B35"/>
<rect x="18" y="16" width="2" height="2" fill="#0F3B35"/>
<rect x="20" y="14" width="2" height="2" fill="#0F3B35"/>
<rect x="22" y="12" width="2" height="2" fill="#0F3B35"/>
<rect x="24" y="10" width="2" height="2" fill="#0F3B35"/>
<rect x="26" y="8" width="2" height="2" fill="#0F3B35"/>
<rect x="28" y="6" width="2" height="2" fill="#0F3B35"/>
<rect x="12" y="14" width="2" height="2" fill="#0F3B35"/>
<rect x="14" y="12" width="2" height="2" fill="#0F3B35"/>
<rect x="16" y="10" width="2" height="2" fill="#0F3B35"/>
<rect x="18" y="8" width="2" height="2" fill="#0F3B35"/>
<rect x="20" y="6" width="2" height="2" fill="#0F3B35"/>
<rect x="22" y="4" width="2" height="2" fill="#0F3B35"/>
<rect x="24" y="2" width="2" height="2" fill="#0F3B35"/>
<rect x="26" width="2" height="2" fill="#0F3B35"/>
<rect x="28" width="2" height="2" fill="#0F3B35"/>
<rect x="30" width="2" height="2" fill="#0F3B35"/>
<rect x="30" y="2" width="2" height="2" fill="#0F3B35"/>
<rect x="30" y="4" width="2" height="2" fill="#0F3B35"/>
<rect x="28" y="2" width="2" height="2" fill="#2AC2A9"/>
<rect x="26" y="4" width="2" height="2" fill="#2AC2A9"/>
<rect x="24" y="6" width="2" height="2" fill="#2AC2A9"/>
<rect x="22" y="8" width="2" height="2" fill="#2AC2A9"/>
<rect x="20" y="10" width="2" height="2" fill="#2AC2A9"/>
<rect x="18" y="12" width="2" height="2" fill="#2AC2A9"/>
<rect x="16" y="14" width="2" height="2" fill="#2AC2A9"/>
<rect x="14" y="16" width="2" height="2" fill="#2AC2A9"/>
<rect x="12" y="18" width="2" height="2" fill="#2AC2A9"/>
<rect x="14" y="18" width="2" height="2" fill="#33E2C4"/>
<rect x="16" y="16" width="2" height="2" fill="#33E2C4"/>
<rect x="18" y="14" width="2" height="2" fill="#33E2C4"/>
<rect x="20" y="12" width="2" height="2" fill="#33E2C4"/>
<rect x="22" y="10" width="2" height="2" fill="#33E2C4"/>
<rect x="24" y="8" width="2" height="2" fill="#33E2C4"/>
<rect x="26" y="6" width="2" height="2" fill="#33E2C4"/>
<rect x="28" y="4" width="2" height="2" fill="#33E2C4"/>
<rect x="14" y="18" width="2" height="2" fill="#33E2C4"/>
<rect x="16" y="16" width="2" height="2" fill="#33E2C4"/>
<rect x="18" y="14" width="2" height="2" fill="#33E2C4"/>
<rect x="20" y="12" width="2" height="2" fill="#33E2C4"/>
<rect x="22" y="10" width="2" height="2" fill="#33E2C4"/>
<rect x="24" y="8" width="2" height="2" fill="#33E2C4"/>
<rect x="26" y="6" width="2" height="2" fill="#33E2C4"/>
<rect x="28" y="4" width="2" height="2" fill="#33E2C4"/>
<rect x="12" y="16" width="2" height="2" fill="#33E2C4"/>
<rect x="14" y="14" width="2" height="2" fill="#33E2C4"/>
<rect x="16" y="12" width="2" height="2" fill="#33E2C4"/>
<rect x="18" y="10" width="2" height="2" fill="#33E2C4"/>
<rect x="20" y="8" width="2" height="2" fill="#33E2C4"/>
<rect x="22" y="6" width="2" height="2" fill="#33E2C4"/>
<rect x="24" y="4" width="2" height="2" fill="#33E2C4"/>
<rect x="26" y="2" width="2" height="2" fill="#33E2C4"/>
</svg>
