<svg viewBox="0 0 24 24" xmlns="http://www.w3.org/2000/svg" fill="currentColor" class="h-5.5 w-5.5"><path d="M2.53419 10.491 20.4342 3.72755c.5979-.22564 1.2652.07521 1.4908.67307.0791.21021.0964.43779.0482.65668l-3.0857 14.0805c-.1562.7136-.8611 1.1658-1.5747 1.0086-.1774-.0385-.3442-.1138-.4918-.2198l-6.1453-4.4415c-.3694-.2671-.4533-.784-.1852-1.1543.0289-.0395.0617-.0771.0964-.1118l6.319-6.07213c.1311-.12632.135-.33557.0087-.46768-.109-.11282-.2826-.13404-.4156-.04918L7.88597 13.0975c-.5101.324-1.13978.3973-1.7116.1996l-3.618-1.2516c-.43103-.1485-.65957-.6201-.51107-1.0511.081-.2314.25939-.4166.48889-.5034Z"></path></svg>